<svg width="810" height="86" viewBox="0 0 810 86" xmlns="http://www.w3.org/2000/svg">
  <rect x="0" y="0" width="810" height="86" rx="6" fill="#f9fbe7"/>
  <rect x="0" y="0" width="5" height="86" fill="#4CAF50"/>

  <rect x="18" y="20" width="36" height="36" rx="8" fill="#4CAF50"/>
  <text x="36" y="44" text-anchor="middle" font-family="'Malgun Gothic', sans-serif" font-size="19" font-weight="700" fill="white">K</text>

  <line x1="68" y1="16" x2="68" y2="70" stroke="#c5e1a5" stroke-width="1"/>

  <rect x="80" y="14" width="190" height="58" rx="5" fill="#ffffff" stroke="#dcedc8" stroke-width="1"/>
  <text x="175" y="36" text-anchor="middle" font-family="'Malgun Gothic', sans-serif" font-size="12" font-weight="700" fill="#2e7d32">신선식품 특가</text>
  <text x="175" y="54" text-anchor="middle" font-family="'Malgun Gothic', sans-serif" font-size="11" fill="#558b2f">매일 오전 10시 한정수량 오픈!</text>
  <text x="175" y="68" text-anchor="middle" font-family="'Malgun Gothic', sans-serif" font-size="10" fill="#9e9e9e">농산물 · 축산물 · 수산물</text>

  <rect x="284" y="14" width="190" height="58" rx="5" fill="#ffffff" stroke="#dcedc8" stroke-width="1"/>
  <text x="379" y="36" text-anchor="middle" font-family="'Malgun Gothic', sans-serif" font-size="12" font-weight="700" fill="#2e7d32">쿠폰 · 포인트 혜택</text>
  <text x="379" y="54" text-anchor="middle" font-family="'Malgun Gothic', sans-serif" font-size="11" fill="#558b2f">첫 구매 시 5,000원 쿠폰 증정</text>
  <text x="379" y="68" text-anchor="middle" font-family="'Malgun Gothic', sans-serif" font-size="10" fill="#9e9e9e">마이페이지 &gt; 쿠폰내역 확인</text>

  <rect x="488" y="14" width="190" height="58" rx="5" fill="#ffffff" stroke="#dcedc8" stroke-width="1"/>
  <text x="583" y="36" text-anchor="middle" font-family="'Malgun Gothic', sans-serif" font-size="12" font-weight="700" fill="#2e7d32">무료배송 혜택</text>
  <text x="583" y="54" text-anchor="middle" font-family="'Malgun Gothic', sans-serif" font-size="11" fill="#558b2f">3만원 이상 구매 시 무료배송</text>
  <text x="583" y="68" text-anchor="middle" font-family="'Malgun Gothic', sans-serif" font-size="10" fill="#9e9e9e">일부 도서산간 제외</text>

  <rect x="694" y="26" width="100" height="34" rx="17" fill="#4CAF50"/>
  <text x="744" y="48" text-anchor="middle" font-family="'Malgun Gothic', sans-serif" font-size="12" font-weight="700" fill="white">쇼핑 바로가기</text>
</svg>
